<svg width="100" height="100" viewBox="0 0 100 100" fill="none" xmlns="http://www.w3.org/2000/svg">
<g clip-path="url(#clip0_43_64)">
<mask id="mask0_43_64" style="mask-type:luminance" maskUnits="userSpaceOnUse" x="0" y="0" width="100" height="100">
<path d="M100 0H0V100H100V0Z" fill="white"/>
</mask>
<g mask="url(#mask0_43_64)">
<path d="M27.8113 17.7622L55.324 2.80052C57.9978 1.34649 61.3082 2.42197 62.4236 5.10701L72.8631 30.2368C73.9066 32.7486 72.5995 35.6693 69.9565 36.7319L62.1151 39.8844C58.9591 41.1532 57.8399 44.9567 59.873 47.5034L63.2947 51.7893C63.9048 52.5534 63.0826 53.6493 62.1313 53.34L46.2374 48.1713C45.0912 47.7986 43.831 47.8427 42.6877 48.2957L41.2409 48.8688C38.6472 49.8964 35.7491 48.7482 34.7271 46.2882L25.4653 23.9933C24.5097 21.6929 25.5206 19.0079 27.8113 17.7622Z" stroke="#F61500" stroke-width="3"/>
<path d="M57.3456 24.6675C56.0433 25.2294 54.5526 24.6768 54.0162 23.4333C53.4798 22.1898 54.1007 20.7263 55.4031 20.1645C56.7055 19.6027 58.1961 20.1553 58.7325 21.3987C59.2689 22.6422 58.648 24.1057 57.3456 24.6675Z" fill="#F61500"/>
<path d="M57.3456 24.6675C56.0433 25.2294 54.5526 24.6768 54.0162 23.4333C53.4798 22.1898 54.1007 20.7263 55.4031 20.1645C56.7055 19.6027 58.1961 20.1553 58.7325 21.3987C59.2689 22.6422 58.648 24.1057 57.3456 24.6675Z" fill="#F61500"/>
<path d="M57.3456 24.6675C56.0433 25.2294 54.5526 24.6768 54.0162 23.4333C53.4798 22.1898 54.1007 20.7263 55.4031 20.1645C56.7055 19.6027 58.1961 20.1553 58.7325 21.3987C59.2689 22.6422 58.648 24.1057 57.3456 24.6675Z" fill="#F61500"/>
<path d="M48.5868 28.4459C47.2845 29.0077 45.7938 28.4551 45.2574 27.2116C44.721 25.9681 45.3419 24.5046 46.6443 23.9428C47.9467 23.381 49.4373 23.9336 49.9737 25.1771C50.5101 26.4205 49.8892 27.884 48.5868 28.4459Z" fill="#F61500"/>
<path d="M48.5868 28.4459C47.2845 29.0077 45.7938 28.4551 45.2574 27.2116C44.721 25.9681 45.3419 24.5046 46.6443 23.9428C47.9467 23.381 49.4373 23.9336 49.9737 25.1771C50.5101 26.4205 49.8892 27.884 48.5868 28.4459Z" fill="#F61500"/>
<path d="M48.5868 28.4459C47.2845 29.0077 45.7938 28.4551 45.2574 27.2116C44.721 25.9681 45.3419 24.5046 46.6443 23.9428C47.9467 23.381 49.4373 23.9336 49.9737 25.1771C50.5101 26.4205 49.8892 27.884 48.5868 28.4459Z" fill="#F61500"/>
<path d="M39.828 32.2244C38.5257 32.7862 37.035 32.2336 36.4986 30.9902C35.9622 29.7467 36.5831 28.2832 37.8855 27.7214C39.1879 27.1595 40.6785 27.7121 41.2149 28.9556C41.7513 30.1991 41.1304 31.6626 39.828 32.2244Z" fill="#F61500"/>
<path d="M39.828 32.2244C38.5257 32.7862 37.035 32.2336 36.4986 30.9902C35.9622 29.7467 36.5831 28.2832 37.8855 27.7214C39.1879 27.1595 40.6785 27.7121 41.2149 28.9556C41.7513 30.1991 41.1304 31.6626 39.828 32.2244Z" fill="#F61500"/>
<path d="M39.828 32.2244C38.5257 32.7862 37.035 32.2336 36.4986 30.9902C35.9622 29.7467 36.5831 28.2832 37.8855 27.7214C39.1879 27.1595 40.6785 27.7121 41.2149 28.9556C41.7513 30.1991 41.1304 31.6626 39.828 32.2244Z" fill="#F61500"/>
<path d="M71.8493 75.8593C73.4904 119.617 36.8116 127.131 6.70741 162.694M53.4021 75.5873C55.0432 119.344 24.8752 122.082 -6.31039 162.608M33.9729 75.3008C37.5297 118.198 7.46228 121.79 -21.2622 163.202" stroke="#252525" stroke-width="5" stroke-linecap="round"/>
</g>
</g>
<defs>
<clipPath id="clip0_43_64">
<rect width="100" height="100" fill="white"/>
</clipPath>
</defs>
</svg>
