<svg width="100" height="100" viewBox="0 0 100 100" fill="none" xmlns="http://www.w3.org/2000/svg">
<g clip-path="url(#clip0_43_33)">
<mask id="mask0_43_33" style="mask-type:luminance" maskUnits="userSpaceOnUse" x="0" y="0" width="100" height="100">
<path d="M100 0H0V100H100V0Z" fill="white"/>
</mask>
<g mask="url(#mask0_43_33)">
<path d="M27.8113 17.7622L55.324 2.80052C57.9978 1.34649 61.3082 2.42197 62.4237 5.10701L72.8631 30.2368C73.9066 32.7486 72.5995 35.6693 69.9565 36.7319L62.1151 39.8844C58.9592 41.1532 57.8399 44.9567 59.873 47.5034L63.2948 51.7893C63.9048 52.5534 63.0826 53.6493 62.1314 53.34L46.2374 48.1713C45.0912 47.7986 43.831 47.8427 42.6877 48.2957L41.2409 48.8688C38.6472 49.8964 35.7491 48.7482 34.7272 46.2882L25.4653 23.9933C24.5097 21.6929 25.5206 19.0079 27.8113 17.7622Z" stroke="#F61500" stroke-width="3"/>
<path d="M71.8493 75.8593C73.4903 119.617 36.8116 127.131 6.7074 162.694M53.4021 75.5873C55.0432 119.344 24.8751 122.082 -6.3104 162.608M33.9728 75.3008C37.5297 118.198 7.46226 121.79 -21.2622 163.202" stroke="#252525" stroke-width="5" stroke-linecap="round"/>
<path d="M41.5244 19.8106C41.2108 19.317 41.3857 18.6608 41.9034 18.3889L44.5183 17.0156C45.0433 16.7399 45.6916 16.9789 45.9118 17.5295L50.1286 28.0715C50.3337 28.5843 50.0843 29.1663 49.5715 29.3714L48.7704 29.6919C48.3237 29.8705 47.813 29.7058 47.555 29.2998L41.5244 19.8106Z" fill="#F61500"/>
<path d="M51 35C52.1046 35 53 34.1046 53 33C53 31.8954 52.1046 31 51 31C49.8954 31 49 31.8954 49 33C49 34.1046 49.8954 35 51 35Z" fill="#F61500"/>
</g>
</g>
<defs>
<clipPath id="clip0_43_33">
<rect width="100" height="100" fill="white"/>
</clipPath>
</defs>
</svg>
