<svg width="700" height="520" viewBox="0 0 700 520" fill="none" xmlns="http://www.w3.org/2000/svg">
<g clip-path="url(#clip0_15_2)">
<path d="M675 462.222C675 488.855 529.269 510.444 349.5 510.444C169.731 510.444 24 488.855 24 462.222C24 435.59 169.731 414 349.5 414C529.269 414 675 435.59 675 462.222Z" fill="#252525"/>
<mask id="mask0_15_2" style="mask-type:alpha" maskUnits="userSpaceOnUse" x="24" y="-66" width="651" height="577">
<path d="M675 462.222C675 488.855 529.269 510.445 349.5 510.445C169.731 510.445 24 488.855 24 462.222C24 -65.9999 24 -66.0001 349.5 -66C675 -65.9999 675 -65.9999 675 462.222Z" fill="#252525"/>
</mask>
<g mask="url(#mask0_15_2)">
<path d="M450.201 233.916C433.399 195.224 394.875 168.222 350 168.222C305.125 168.222 266.601 195.224 249.799 233.916C238.597 234.873 229.786 244.238 229.786 255.722V299.472C229.786 310.957 238.597 320.322 249.799 321.279C266.601 359.97 305.125 386.972 350 386.972C394.875 386.972 433.399 359.97 450.201 321.279C461.403 320.322 470.214 310.957 470.214 299.472V255.722C470.214 244.238 461.403 234.873 450.201 233.916ZM426.5 266.66V277.597C426.5 313.828 397.129 343.222 360.929 343.222H339.071C302.871 343.222 273.5 313.828 273.5 277.597V266.66C273.5 248.544 288.185 233.847 306.286 233.847H393.714C411.815 233.847 426.5 248.544 426.5 266.66ZM326.299 279.443L322.2 264.951C321.586 262.695 319.537 261.191 317.214 261.191C314.892 261.191 312.843 262.695 312.228 264.951L308.13 279.443L293.65 283.544C291.396 284.16 289.893 286.21 289.893 288.535C289.893 290.859 291.396 292.91 293.65 293.525L308.13 297.626L312.228 312.119C312.843 314.375 314.892 315.878 317.214 315.878C319.537 315.878 321.586 314.375 322.2 312.119L326.299 297.626L340.779 293.525C343.033 292.91 344.536 290.859 344.536 288.535C344.536 286.21 343.033 284.16 340.779 283.544L326.299 279.443ZM273.978 384.58C228.898 402.421 197 446.445 197 497.919C197 509.13 206.084 518.222 217.286 518.222H284.429V474.472C284.429 462.373 294.196 452.597 306.286 452.597H393.714C405.804 452.597 415.571 462.373 415.571 474.472V518.222H482.714C493.916 518.222 503 509.13 503 497.919C503 446.445 471.102 402.421 426.022 384.58C404.575 399.824 378.346 408.847 350 408.847C321.654 408.847 295.425 399.824 273.978 384.58ZM317.214 474.472C311.204 474.472 306.286 479.394 306.286 485.41V518.222H328.143V485.41C328.143 479.394 323.225 474.472 317.214 474.472ZM382.786 496.347C385.684 496.347 388.464 495.195 390.513 493.144C392.563 491.092 393.714 488.31 393.714 485.41C393.714 482.509 392.563 479.727 390.513 477.676C388.464 475.625 385.684 474.472 382.786 474.472C379.887 474.472 377.108 475.625 375.058 477.676C373.009 479.727 371.857 482.509 371.857 485.41C371.857 488.31 373.009 491.092 375.058 493.144C377.108 495.195 379.887 496.347 382.786 496.347Z" fill="#F61500"/>
</g>
<path d="M417.525 68.8228L425.24 42.6753H427.657L425.704 50.439L417.477 78.2222H415.157L417.525 68.8228ZM408.565 42.6753L415.06 68.5786L417.013 78.2222H414.596L405.489 42.6753H408.565ZM438.058 68.5786L444.454 42.6753H447.53L438.448 78.2222H436.031L438.058 68.5786ZM427.926 42.6753L435.543 68.8228L437.887 78.2222H435.567L427.511 50.439L425.533 42.6753H427.926Z" fill="#F61500"/>
<path d="M450.265 65.4292V64.6235C450.265 62.703 450.541 60.9289 451.095 59.3013C451.648 57.6737 452.438 56.2658 453.463 55.0776C454.505 53.8895 455.75 52.9699 457.198 52.3188C458.647 51.6515 460.258 51.3179 462.032 51.3179C463.823 51.3179 465.442 51.6515 466.891 52.3188C468.339 52.9699 469.584 53.8895 470.626 55.0776C471.668 56.2658 472.465 57.6737 473.019 59.3013C473.572 60.9289 473.849 62.703 473.849 64.6235V65.4292C473.849 67.3498 473.572 69.1239 473.019 70.7515C472.465 72.3628 471.668 73.7625 470.626 74.9507C469.601 76.1388 468.364 77.0666 466.915 77.7339C465.466 78.3849 463.855 78.7104 462.081 78.7104C460.291 78.7104 458.671 78.3849 457.223 77.7339C455.774 77.0666 454.529 76.1388 453.487 74.9507C452.446 73.7625 451.648 72.3628 451.095 70.7515C450.541 69.1239 450.265 67.3498 450.265 65.4292ZM453.17 64.6235V65.4292C453.17 66.8778 453.365 68.2531 453.756 69.5552C454.146 70.841 454.716 71.9884 455.465 72.9976C456.214 73.9904 457.141 74.7716 458.248 75.3413C459.355 75.911 460.632 76.1958 462.081 76.1958C463.513 76.1958 464.775 75.911 465.865 75.3413C466.972 74.7716 467.9 73.9904 468.648 72.9976C469.397 71.9884 469.959 70.841 470.333 69.5552C470.724 68.2531 470.919 66.8778 470.919 65.4292V64.6235C470.919 63.1912 470.724 61.8322 470.333 60.5464C469.959 59.2606 469.389 58.1131 468.624 57.104C467.875 56.0949 466.948 55.2974 465.841 54.7114C464.734 54.1255 463.465 53.8325 462.032 53.8325C460.6 53.8325 459.33 54.1255 458.224 54.7114C457.133 55.2974 456.205 56.0949 455.44 57.104C454.692 58.1131 454.122 59.2606 453.731 60.5464C453.357 61.8322 453.17 63.1912 453.17 64.6235Z" fill="#F61500"/>
<path d="M478.292 65.4292V64.6235C478.292 62.703 478.569 60.9289 479.122 59.3013C479.675 57.6737 480.465 56.2658 481.49 55.0776C482.532 53.8895 483.777 52.9699 485.226 52.3188C486.674 51.6515 488.285 51.3179 490.06 51.3179C491.85 51.3179 493.469 51.6515 494.918 52.3188C496.367 52.9699 497.612 53.8895 498.653 55.0776C499.695 56.2658 500.493 57.6737 501.046 59.3013C501.599 60.9289 501.876 62.703 501.876 64.6235V65.4292C501.876 67.3498 501.599 69.1239 501.046 70.7515C500.493 72.3628 499.695 73.7625 498.653 74.9507C497.628 76.1388 496.391 77.0666 494.942 77.7339C493.494 78.3849 491.882 78.7104 490.108 78.7104C488.318 78.7104 486.699 78.3849 485.25 77.7339C483.801 77.0666 482.556 76.1388 481.515 74.9507C480.473 73.7625 479.675 72.3628 479.122 70.7515C478.569 69.1239 478.292 67.3498 478.292 65.4292ZM481.197 64.6235V65.4292C481.197 66.8778 481.393 68.2531 481.783 69.5552C482.174 70.841 482.743 71.9884 483.492 72.9976C484.241 73.9904 485.169 74.7716 486.275 75.3413C487.382 75.911 488.66 76.1958 490.108 76.1958C491.541 76.1958 492.802 75.911 493.893 75.3413C494.999 74.7716 495.927 73.9904 496.676 72.9976C497.424 71.9884 497.986 70.841 498.36 69.5552C498.751 68.2531 498.946 66.8778 498.946 65.4292V64.6235C498.946 63.1912 498.751 61.8322 498.36 60.5464C497.986 59.2606 497.416 58.1131 496.651 57.104C495.903 56.0949 494.975 55.2974 493.868 54.7114C492.761 54.1255 491.492 53.8325 490.06 53.8325C488.627 53.8325 487.358 54.1255 486.251 54.7114C485.16 55.2974 484.233 56.0949 483.468 57.104C482.719 58.1131 482.149 59.2606 481.759 60.5464C481.384 61.8322 481.197 63.1912 481.197 64.6235Z" fill="#F61500"/>
<path d="M510.812 56.8843V88.3784H507.882V51.8062H510.616L510.812 56.8843ZM529.171 64.77V65.2827C529.171 67.2521 528.943 69.0588 528.487 70.7026C528.032 72.3465 527.372 73.7707 526.51 74.9751C525.663 76.1632 524.614 77.0828 523.36 77.7339C522.107 78.3849 520.683 78.7104 519.088 78.7104C517.509 78.7104 516.101 78.4663 514.864 77.978C513.627 77.4897 512.561 76.798 511.666 75.9028C510.787 74.9914 510.079 73.9334 509.542 72.729C509.021 71.5083 508.655 70.1737 508.443 68.7251V61.9624C508.688 60.3673 509.086 58.9188 509.64 57.6167C510.193 56.3146 510.901 55.1916 511.764 54.2476C512.643 53.3035 513.684 52.5793 514.889 52.0747C516.093 51.5701 517.468 51.3179 519.015 51.3179C520.626 51.3179 522.058 51.6353 523.312 52.27C524.581 52.8885 525.647 53.7918 526.51 54.98C527.389 56.1519 528.048 57.5679 528.487 59.228C528.943 60.8719 529.171 62.7192 529.171 64.77ZM526.241 65.2827V64.77C526.241 63.2238 526.078 61.7915 525.753 60.4731C525.444 59.1548 524.964 58.0073 524.312 57.0308C523.678 56.0379 522.864 55.2648 521.871 54.7114C520.895 54.158 519.731 53.8813 518.38 53.8813C516.98 53.8813 515.784 54.1174 514.791 54.5894C513.814 55.0451 513.001 55.6554 512.35 56.4204C511.699 57.1691 511.186 57.991 510.812 58.8862C510.437 59.7814 510.16 60.6603 509.981 61.5229V69.311C510.291 70.548 510.787 71.6955 511.471 72.7534C512.154 73.7951 513.066 74.6333 514.205 75.2681C515.361 75.8866 516.769 76.1958 518.429 76.1958C519.763 76.1958 520.919 75.9191 521.896 75.3657C522.872 74.8123 523.678 74.0392 524.312 73.0464C524.964 72.0535 525.444 70.8979 525.753 69.5796C526.078 68.2612 526.241 66.8289 526.241 65.2827Z" fill="#F61500"/>
<path d="M551.485 71.4839C551.485 70.7677 551.306 70.0597 550.948 69.3599C550.59 68.66 549.898 68.0171 548.873 67.4312C547.864 66.8452 546.375 66.3488 544.405 65.9419C542.94 65.6164 541.63 65.2502 540.475 64.8433C539.335 64.4364 538.375 63.9481 537.594 63.3784C536.812 62.8088 536.218 62.1252 535.812 61.3276C535.405 60.5301 535.201 59.5861 535.201 58.4956C535.201 57.519 535.413 56.5994 535.836 55.7368C536.275 54.8579 536.894 54.0929 537.691 53.4419C538.505 52.7746 539.482 52.2537 540.621 51.8794C541.777 51.505 543.071 51.3179 544.503 51.3179C546.537 51.3179 548.279 51.6678 549.728 52.3677C551.192 53.0513 552.307 53.9871 553.072 55.1753C553.854 56.3634 554.244 57.7062 554.244 59.2036H551.339C551.339 58.2922 551.07 57.4295 550.533 56.6157C550.012 55.8019 549.239 55.1346 548.214 54.6138C547.205 54.0929 545.968 53.8325 544.503 53.8325C542.989 53.8325 541.76 54.0604 540.816 54.5161C539.872 54.9718 539.181 55.5496 538.741 56.2495C538.318 56.9494 538.106 57.6737 538.106 58.4224C538.106 59.0083 538.196 59.5454 538.375 60.0337C538.57 60.5057 538.912 60.9452 539.4 61.3521C539.905 61.759 540.621 62.1414 541.549 62.4995C542.477 62.8576 543.681 63.2075 545.162 63.5493C547.294 64.0213 549.036 64.5991 550.387 65.2827C551.754 65.95 552.763 66.7801 553.414 67.7729C554.065 68.7495 554.391 69.9377 554.391 71.3374C554.391 72.4279 554.163 73.4289 553.707 74.3403C553.251 75.2355 552.592 76.0086 551.729 76.6597C550.883 77.3107 549.858 77.8153 548.653 78.1733C547.465 78.5314 546.131 78.7104 544.649 78.7104C542.42 78.7104 540.532 78.3442 538.985 77.6118C537.455 76.8631 536.292 75.8866 535.494 74.6821C534.713 73.4614 534.322 72.1675 534.322 70.8003H537.228C537.325 72.1675 537.757 73.2498 538.521 74.0474C539.286 74.8286 540.222 75.382 541.329 75.7075C542.452 76.033 543.559 76.1958 544.649 76.1958C546.147 76.1958 547.4 75.9761 548.409 75.5366C549.418 75.0972 550.183 74.5194 550.704 73.8032C551.225 73.0871 551.485 72.314 551.485 71.4839Z" fill="#F61500"/>
<path d="M564.278 42.6753L564.107 68.3101H561.422L561.251 42.6753H564.278ZM560.934 76.4888C560.934 75.9354 561.104 75.4715 561.446 75.0972C561.804 74.7065 562.301 74.5112 562.936 74.5112C563.554 74.5112 564.042 74.7065 564.4 75.0972C564.775 75.4715 564.962 75.9354 564.962 76.4888C564.962 77.0259 564.775 77.4897 564.4 77.8804C564.042 78.2547 563.554 78.4419 562.936 78.4419C562.301 78.4419 561.804 78.2547 561.446 77.8804C561.104 77.4897 560.934 77.0259 560.934 76.4888Z" fill="#F61500"/>
<path d="M391 7.72217H583C593.217 7.72217 601.5 16.0049 601.5 26.2222V101.222C601.5 111.439 593.217 119.722 583 119.722H514.557L514.186 119.962L448.5 162.464V119.722H391C380.783 119.722 372.5 111.439 372.5 101.222V26.2222C372.5 16.0049 380.783 7.72217 391 7.72217Z" stroke="#F61500" stroke-width="3"/>
</g>
<defs>
<clipPath id="clip0_15_2">
<rect width="700" height="520" fill="white"/>
</clipPath>
</defs>
</svg>
