<svg width="100" height="100" viewBox="0 0 100 100" fill="none" xmlns="http://www.w3.org/2000/svg">
<g clip-path="url(#clip0_43_25)">
<mask id="mask0_43_25" style="mask-type:luminance" maskUnits="userSpaceOnUse" x="0" y="0" width="100" height="100">
<path d="M100 0H0V100H100V0Z" fill="white"/>
</mask>
<g mask="url(#mask0_43_25)">
<path d="M27.8113 17.7622L55.324 2.80052C57.9978 1.34649 61.3082 2.42197 62.4236 5.10701L72.8631 30.2368C73.9066 32.7486 72.5995 35.6693 69.9565 36.7319L62.1151 39.8844C58.9591 41.1532 57.8399 44.9567 59.873 47.5034L63.2947 51.7893C63.9048 52.5534 63.0826 53.6493 62.1313 53.34L46.2374 48.1713C45.0912 47.7986 43.831 47.8427 42.6877 48.2957L41.2409 48.8688C38.6472 49.8964 35.7491 48.7482 34.7271 46.2882L25.4653 23.9933C24.5097 21.6929 25.5206 19.0079 27.8113 17.7622Z" stroke="#F61500" stroke-width="3"/>
<path d="M71.8493 75.8593C73.4904 119.617 36.8116 127.131 6.70741 162.694M53.4021 75.5873C55.0432 119.344 24.8752 122.082 -6.31039 162.608M33.9729 75.3008C37.5297 118.198 7.46228 121.79 -21.2622 163.202" stroke="#252525" stroke-width="5" stroke-linecap="round"/>
<path d="M49.0002 31.5C48.5002 30.5 47.5002 28.5 48.3722 26.5996C48.6392 25.9492 49.013 25.2965 49.4936 24.6415C49.7817 24.244 50.0126 23.8203 50.1864 23.3705C50.3574 22.9141 50.4424 22.436 50.4413 21.9361C50.4468 21.4335 50.3413 20.9233 50.125 20.4056C49.8566 19.7634 49.4731 19.2694 48.9744 18.9236C48.4758 18.5778 47.9208 18.3825 47.3094 18.3378C46.698 18.2931 46.0843 18.3995 45.4684 18.657C44.931 18.8815 44.4599 19.2093 44.055 19.6402C43.6501 20.0712 43.3805 20.5957 43.2462 21.2137C42.8806 22.8965 43.2462 23.4191 42.2124 23.8511C41.1786 24.2832 40.3005 22.9465 40.6434 21.1469C40.8428 20.1321 41.2874 19.2343 41.9771 18.4534C42.6734 17.6698 43.5523 17.0561 44.6139 16.6124C45.7672 16.1304 46.8657 15.9407 47.9093 16.0434C48.9594 16.1433 49.8842 16.4958 50.6836 17.1008C51.4895 17.7031 52.1061 18.5154 52.5333 19.5376C52.8346 20.2585 52.9957 20.957 53.0167 21.6334C53.0442 22.307 52.9473 22.9594 52.7262 23.5906C52.5116 24.2191 52.19 24.8308 51.7612 25.4257C51.3352 26.0271 51.032 26.6003 50.8518 27.1452C50.408 28.4507 50.4683 29.6673 51.0002 31C51.0002 31 51.0002 31.375 50.1469 31.6196C49.061 31.9308 49.0002 31.5 49.0002 31.5ZM52.6576 37.4057C52.1727 37.6084 51.684 37.6087 51.1915 37.4065C50.699 37.2043 50.3515 36.8608 50.1488 36.3759C49.9462 35.891 49.9459 35.4023 50.1481 34.9098C50.3502 34.4174 50.6937 34.0698 51.1787 33.8671C51.6636 33.6645 52.1523 33.6642 52.6447 33.8664C53.1372 34.0685 53.4848 34.412 53.6874 34.897C53.8216 35.2181 53.863 35.5472 53.8114 35.8843C53.7664 36.2187 53.6438 36.524 53.4436 36.8001C53.2473 37.0669 52.9852 37.2688 52.6576 37.4057Z" fill="#F61500"/>
</g>
</g>
<defs>
<clipPath id="clip0_43_25">
<rect width="100" height="100" fill="white"/>
</clipPath>
</defs>
</svg>
