<svg width="500" height="310" viewBox="0 0 500 310" fill="none" xmlns="http://www.w3.org/2000/svg">
<g clip-path="url(#clip0_43_91)">
<path d="M-17 306.325H56.3397C61.6987 306.325 66.6506 303.466 69.3301 298.825L119.17 212.5C121.849 207.859 126.801 205 132.16 205H170M-27 293.325H46.3397C51.6987 293.325 56.6506 290.466 59.3301 285.825L109.17 199.5C111.849 194.859 116.801 192 122.16 192H160M-37 280.325H36.3397C41.6987 280.325 46.6506 277.466 49.3301 272.825L99.1699 186.5C101.849 181.859 106.801 179 112.16 179H150" stroke="#252525" stroke-width="3"/>
<path d="M277.99 157.686C278.051 157.686 281.876 163.145 281.907 163.145C281.938 163.145 285.731 160.393 285.746 160.359C285.761 160.324 281.922 154.635 281.922 154.558C281.922 154.458 287.645 152.555 287.998 152.413C288.056 152.391 286.612 147.778 286.598 147.765C286.572 147.733 280.222 149.905 280.173 149.905C280.155 149.905 280.133 149.877 280.129 149.846C280.111 149.754 280.085 143.08 280.054 143.034C280.018 142.98 275.439 143.002 275.412 143.021C275.346 143.066 275.258 150.128 275.143 150.128C275.081 150.128 269.018 147.988 268.991 148.02C268.956 148.061 267.582 152.673 267.6 152.691C267.64 152.732 273.792 154.836 273.809 154.913C273.823 154.977 270.153 160.472 270.166 160.509C270.177 160.54 272.886 162.598 273.729 163.222C273.893 163.343 274.04 163.32 274.158 163.153C274.931 162.058 277.918 157.686 277.991 157.686H277.99Z" fill="#F61500"/>
<path d="M245.69 157.686C245.751 157.686 249.576 163.145 249.607 163.145C249.638 163.145 253.431 160.393 253.446 160.359C253.461 160.324 249.622 154.635 249.622 154.558C249.622 154.458 255.345 152.555 255.698 152.413C255.756 152.391 254.312 147.778 254.298 147.765C254.272 147.733 247.922 149.905 247.873 149.905C247.855 149.905 247.833 149.877 247.829 149.846C247.811 149.754 247.785 143.08 247.754 143.034C247.718 142.98 243.139 143.002 243.112 143.021C243.046 143.066 242.958 150.128 242.843 150.128C242.781 150.128 236.718 147.988 236.691 148.02C236.656 148.061 235.283 152.673 235.3 152.691C235.34 152.732 241.492 154.836 241.509 154.913C241.523 154.977 237.853 160.472 237.866 160.509C237.879 160.545 241.642 163.4 241.677 163.4C241.721 163.391 245.608 157.686 245.691 157.686H245.69Z" fill="#F61500"/>
<path d="M213.39 157.686C213.451 157.686 217.276 163.145 217.307 163.145C217.338 163.145 221.131 160.393 221.146 160.359C221.161 160.324 217.322 154.635 217.322 154.558C217.322 154.458 223.045 152.555 223.398 152.413C223.456 152.391 222.012 147.778 221.998 147.765C221.972 147.733 215.622 149.905 215.573 149.905C215.555 149.905 215.533 149.877 215.529 149.846C215.511 149.754 215.485 143.08 215.454 143.034C215.418 142.98 210.839 143.002 210.812 143.021C210.746 143.066 210.658 150.128 210.543 150.128C210.481 150.128 204.418 147.988 204.391 148.02C204.356 148.061 202.983 152.673 203 152.691C203.04 152.732 209.192 154.836 209.209 154.913C209.223 154.977 205.553 160.472 205.566 160.509C205.579 160.545 209.342 163.4 209.377 163.4C209.421 163.391 213.307 157.686 213.391 157.686H213.39Z" fill="#F61500"/>
<path d="M182.5 173.901L182.487 173.805L177.501 135.91C177.549 128.496 183.574 122.5 191 122.5H294C301.456 122.5 307.5 128.544 307.5 136V136.099L307.513 136.195L312.498 174.089C312.45 181.504 306.426 187.5 299 187.5H196C188.544 187.5 182.5 181.456 182.5 174V173.901Z" stroke="#F61500" stroke-width="3"/>
<path d="M337 131.325H372.34C377.699 131.325 382.651 128.466 385.33 123.825L435.17 37.5C437.849 32.859 442.801 30 448.16 30H526M327 118.325H362.34C367.699 118.325 372.651 115.466 375.33 110.825L425.17 24.5C427.849 19.859 432.801 17 438.16 17H516M317 105.325H352.34C357.699 105.325 362.651 102.466 365.33 97.825L415.17 11.5C417.849 6.85898 422.801 4 428.16 4H506" stroke="#252525" stroke-width="3"/>
</g>
<defs>
<clipPath id="clip0_43_91">
<rect width="500" height="310" fill="white"/>
</clipPath>
</defs>
</svg>
