<svg width="38" height="55" viewBox="0 0 38 55" fill="none" xmlns="http://www.w3.org/2000/svg">
<path fill-rule="evenodd" clip-rule="evenodd" d="M0.00350424 27.3665C0.0720739 25.9936 1.19211 24.9017 2.56398 24.9017L32.872 24.9017L32.872 21.3494L20.6931 14.2244L14.513 17.8397C13.2867 18.557 11.7186 18.1314 11.0106 16.8887C10.3027 15.646 10.7229 14.0569 11.9491 13.3394L34.154 0.348093C34.9473 -0.116033 35.9247 -0.116033 36.718 0.348093C37.5113 0.812226 38 1.66997 38 2.59823L38 52.4018C38 53.33 37.5113 54.1878 36.718 54.6519C35.9247 55.116 34.9473 55.116 34.154 54.6519L11.9491 41.6606C10.7229 40.943 10.3027 39.354 11.0106 38.1113C11.7186 36.8687 13.2867 36.443 14.513 37.1603L20.6931 40.7755L32.872 33.6506L32.872 30.0983L2.56398 30.0983C1.19227 30.0983 0.0722987 29.0067 0.00350425 27.634C0.00128079 27.5896 -1.20008e-06 27.5449 -1.20205e-06 27.5L0.00350424 27.3665ZM32.872 47.9015L32.872 39.651L25.8211 43.7762L32.872 47.9015ZM32.872 15.349L32.872 7.09851L25.8211 11.2238L32.872 15.349Z" fill="#F61500"/>
</svg>
