<svg width="3000" height="2500" viewBox="0 0 3000 2500" fill="none" xmlns="http://www.w3.org/2000/svg">
<g clip-path="url(#clip0_386_2)">
<path d="M2119.72 2366.35L2085.28 2395.65" stroke="#757575" stroke-width="3" stroke-linecap="round"/>
<path d="M1495.31 945.106L1476.69 960.894" stroke="#757575" stroke-width="3" stroke-linecap="round"/>
<path d="M1467.97 969L1462.37 973.537" stroke="#757575" stroke-width="3" stroke-linecap="round"/>
<path d="M2391.72 2037.39L2358.28 2066.61" stroke="#757575" stroke-width="3" stroke-linecap="round"/>
<path d="M2341.94 2081L2328.92 2092.25" stroke="#757575" stroke-width="3" stroke-linecap="round"/>
<path d="M1841.31 563.152L1823.69 578.848" stroke="#757575" stroke-width="3" stroke-linecap="round"/>
<path d="M1633.51 2111.37L1620.49 2122.63" stroke="#757575" stroke-width="3" stroke-linecap="round"/>
<path d="M1612.97 2129L1606.46 2134.63" stroke="#757575" stroke-width="3" stroke-linecap="round"/>
<path d="M1253.21 515.972L1231.79 534.028" stroke="#757575" stroke-width="3" stroke-linecap="round"/>
<path d="M1269.97 502L1263.46 507.625" stroke="#757575" stroke-width="3" stroke-linecap="round"/>
<path d="M514.867 2425.53L484.133 2451.47" stroke="#757575" stroke-width="3" stroke-linecap="round"/>
<path d="M16.966 913.659L-10.966 937.341" stroke="#757575" stroke-width="3" stroke-linecap="round"/>
<path d="M2983.11 388.838L2958.89 409.162" stroke="#757575" stroke-width="3" stroke-linecap="round"/>
<path d="M2948.96 418L2940.55 424.806" stroke="#757575" stroke-width="3" stroke-linecap="round"/>
<path d="M431.016 1882.75L404.983 1905.25" stroke="#757575" stroke-width="3" stroke-linecap="round"/>
<path d="M932.065 1482.79L906.935 1504.21" stroke="#757575" stroke-width="3" stroke-linecap="round"/>
<path d="M902.974 1508L897.369 1512.54" stroke="#757575" stroke-width="3" stroke-linecap="round"/>
<path d="M435.161 97.8817L411.839 117.118" stroke="#757575" stroke-width="3" stroke-linecap="round"/>
<path d="M93.7202 1567.35L59.28 1596.65" stroke="#757575" stroke-width="3" stroke-linecap="round"/>
<path d="M853.819 1105.48L822.181 1132.52" stroke="#757575" stroke-width="3" stroke-linecap="round"/>
<path d="M1632.87 1459.53L1602.13 1485.47" stroke="#757575" stroke-width="3" stroke-linecap="round"/>
<path d="M1080.62 2181.21L1043.38 2212.79" stroke="#757575" stroke-width="3" stroke-linecap="round"/>
<path d="M613.704 649.597L605.296 656.403" stroke="#757575" stroke-width="3" stroke-linecap="round"/>
<path d="M3032.69 1716.01L2970.31 1768.99" stroke="#757575" stroke-width="3" stroke-linecap="round"/>
<path d="M2538.92 203.615L2510.08 228.385" stroke="#757575" stroke-width="3" stroke-linecap="round"/>
<path d="M2775.52 2492.12L2736.48 2525.88" stroke="#757575" stroke-width="3" stroke-linecap="round"/>
<path d="M2308.18 957.677L2259.82 999.323" stroke="#757575" stroke-width="3" stroke-linecap="round"/>
<path d="M2316.28 1592.81L2270.72 1632.19" stroke="#757575" stroke-width="3" stroke-linecap="round"/>
<path d="M1822.12 79.8838L1798.88 100.116" stroke="#757575" stroke-width="3" stroke-linecap="round"/>
<path d="M1793.99 104L1791.18 106.269" stroke="#757575" stroke-width="3" stroke-linecap="round"/>
</g>
<defs>
<clipPath id="clip0_386_2">
<rect width="3000" height="2500" fill="white"/>
</clipPath>
</defs>
</svg>
