<svg width="100" height="100" viewBox="0 0 100 100" fill="none" xmlns="http://www.w3.org/2000/svg">
<g clip-path="url(#clip0_56_2)">
<path d="M7.22145 17.6397L26.3167 7.25548C28.9905 5.80145 32.301 6.87694 33.4164 9.56198L40.5335 26.6941C41.5769 29.2059 40.2699 32.1266 37.6268 33.1892L34.149 34.5874C30.9931 35.8562 29.8738 39.6598 31.9069 42.2064L33.1264 43.7339C33.7365 44.498 32.9143 45.5939 31.963 45.2846L20.7838 41.6492C19.7035 41.2979 18.5158 41.3395 17.4383 41.7663C14.9938 42.7347 12.2625 41.6526 11.2994 39.3342L4.87548 23.8707C3.91988 21.5704 4.93079 18.8854 7.22145 17.6397Z" stroke="#F61500" stroke-width="3"/>
<ellipse cx="1.97671" cy="1.88734" rx="1.97671" ry="1.88734" transform="matrix(-0.918207 0.3961 0.3961 0.918207 29.3462 19.2097)" fill="#F61500"/>
<ellipse cx="1.97671" cy="1.88734" rx="1.97671" ry="1.88734" transform="matrix(-0.918207 0.3961 0.3961 0.918207 29.3462 19.2097)" fill="#F61500"/>
<ellipse cx="1.97671" cy="1.88734" rx="1.97671" ry="1.88734" transform="matrix(-0.918207 0.3961 0.3961 0.918207 29.3462 19.2097)" fill="#F61500"/>
<ellipse cx="1.97671" cy="1.88734" rx="1.97671" ry="1.88734" transform="matrix(-0.918207 0.3961 0.3961 0.918207 22.6045 22.1179)" fill="#F61500"/>
<ellipse cx="1.97671" cy="1.88734" rx="1.97671" ry="1.88734" transform="matrix(-0.918207 0.3961 0.3961 0.918207 22.6045 22.1179)" fill="#F61500"/>
<ellipse cx="1.97671" cy="1.88734" rx="1.97671" ry="1.88734" transform="matrix(-0.918207 0.3961 0.3961 0.918207 22.6045 22.1179)" fill="#F61500"/>
<ellipse cx="1.97671" cy="1.88734" rx="1.97671" ry="1.88734" transform="matrix(-0.918207 0.3961 0.3961 0.918207 15.8633 25.0261)" fill="#F61500"/>
<ellipse cx="1.97671" cy="1.88734" rx="1.97671" ry="1.88734" transform="matrix(-0.918207 0.3961 0.3961 0.918207 15.8633 25.0261)" fill="#F61500"/>
<ellipse cx="1.97671" cy="1.88734" rx="1.97671" ry="1.88734" transform="matrix(-0.918207 0.3961 0.3961 0.918207 15.8633 25.0261)" fill="#F61500"/>
<path d="M58.9221 43.8066C63.3492 40.5252 66.9531 40.6998 69.0725 42.1699C71.2354 43.6702 72.5056 46.9551 71.3557 51.2469C70.8328 53.1978 69.457 54.9989 67.5076 56.6317C65.5663 58.2577 63.1594 59.6296 60.7704 60.7399C58.3893 61.8465 56.0757 62.6704 54.3537 63.2182C53.5224 63.4827 52.8326 63.681 52.3446 63.8153C51.9891 63.455 51.4915 62.9383 50.9041 62.2939C49.6867 60.9584 48.095 59.0881 46.5862 56.9392C45.0724 54.7832 43.674 52.3917 42.8057 50.0128C41.9339 47.624 41.643 45.3764 42.1656 43.4254C43.3258 39.0955 45.9391 36.9543 48.4537 36.7523C50.9557 36.5514 54.184 38.2086 56.6848 43.2668L57.48 44.876L58.9221 43.8066Z" stroke="#F61500" stroke-width="3"/>
<path d="M66.1665 7.68417L86.5145 3.23163C89.4205 2.59574 92.2356 4.6224 92.5545 7.58003L94.5546 26.1292C94.8507 28.8747 92.865 31.3404 90.1195 31.6364L69.5307 33.8565C66.7852 34.1525 64.3195 32.1668 64.0235 29.4213L62.2641 13.1046C61.9904 10.5665 63.6727 8.22986 66.1665 7.68417Z" stroke="#F61500" stroke-width="3"/>
<path d="M78.3062 25.7797C82.0238 25.3301 82.1473 28.058 82.1473 28.058C82.1473 28.058 80.0828 29.1304 78.7312 29.2939C77.3796 29.4573 75.3892 28.8751 75.3892 28.8751C75.3892 28.8751 74.5887 26.2292 78.3062 25.7797Z" fill="#F61500" stroke="#F61500"/>
<path d="M71.0252 22.2717L85.082 20.572C85.082 20.572 87.1112 28.2806 79.0015 29.2612C70.8918 30.2418 71.0252 22.2717 71.0252 22.2717Z" stroke="#F61500" stroke-width="3"/>
<path d="M83.4898 11.9428C83.1739 11.981 82.8594 12.2041 82.6292 12.6351C82.3999 13.0646 82.2812 13.6611 82.3606 14.3181C82.44 14.9753 82.6975 15.5261 83.0226 15.8887C83.349 16.2526 83.7075 16.395 84.0236 16.3569C84.3397 16.3187 84.6548 16.0948 84.885 15.6635C85.1143 15.2339 85.2322 14.6375 85.1527 13.9805C85.0732 13.3235 84.8167 12.7724 84.4916 12.4099C84.1652 12.046 83.8059 11.9045 83.4898 11.9428Z" fill="#F61500"/>
<path d="M83.4898 11.9428C83.1739 11.981 82.8594 12.2041 82.6292 12.6351C82.3999 13.0646 82.2812 13.6611 82.3606 14.3181C82.44 14.9753 82.6975 15.5261 83.0226 15.8887C83.349 16.2526 83.7075 16.395 84.0236 16.3569C84.3397 16.3187 84.6548 16.0948 84.885 15.6635C85.1143 15.2339 85.2322 14.6375 85.1527 13.9805C85.0732 13.3235 84.8167 12.7724 84.4916 12.4099C84.1652 12.046 83.8059 11.9045 83.4898 11.9428Z" fill="#F61500"/>
<path d="M83.4898 11.9428C83.1739 11.981 82.8594 12.2041 82.6292 12.6351C82.3999 13.0646 82.2812 13.6611 82.3606 14.3181C82.44 14.9753 82.6975 15.5261 83.0226 15.8887C83.349 16.2526 83.7075 16.395 84.0236 16.3569C84.3397 16.3187 84.6548 16.0948 84.885 15.6635C85.1143 15.2339 85.2322 14.6375 85.1527 13.9805C85.0732 13.3235 84.8167 12.7724 84.4916 12.4099C84.1652 12.046 83.8059 11.9045 83.4898 11.9428Z" fill="#F61500"/>
<path d="M83.4898 11.9428C83.1739 11.981 82.8594 12.2041 82.6292 12.6351C82.3999 13.0646 82.2812 13.6611 82.3606 14.3181C82.44 14.9753 82.6975 15.5261 83.0226 15.8887C83.349 16.2526 83.7075 16.395 84.0236 16.3569C84.3397 16.3187 84.6548 16.0948 84.885 15.6635C85.1143 15.2339 85.2322 14.6375 85.1527 13.9805C85.0732 13.3235 84.8167 12.7724 84.4916 12.4099C84.1652 12.046 83.8059 11.9045 83.4898 11.9428Z" stroke="#F61500"/>
<path d="M71.0548 13.4464C70.7388 13.4847 70.4243 13.7078 70.1941 14.1387C69.9648 14.5683 69.8461 15.1648 69.9255 15.8218C70.005 16.4789 70.2624 17.0298 70.5876 17.3924C70.9139 17.7562 71.2725 17.8987 71.5885 17.8605C71.9046 17.8223 72.2197 17.5985 72.45 17.1672C72.6793 16.7376 72.7971 16.1412 72.7177 15.4842C72.6382 14.8272 72.3817 14.276 72.0566 13.9135C71.7302 13.5496 71.3708 13.4082 71.0548 13.4464Z" fill="#F61500"/>
<path d="M71.0548 13.4464C70.7388 13.4847 70.4243 13.7078 70.1941 14.1387C69.9648 14.5683 69.8461 15.1648 69.9255 15.8218C70.005 16.4789 70.2624 17.0298 70.5876 17.3924C70.9139 17.7562 71.2725 17.8987 71.5885 17.8605C71.9046 17.8223 72.2197 17.5985 72.45 17.1672C72.6793 16.7376 72.7971 16.1412 72.7177 15.4842C72.6382 14.8272 72.3817 14.276 72.0566 13.9135C71.7302 13.5496 71.3708 13.4082 71.0548 13.4464Z" fill="#F61500"/>
<path d="M71.0548 13.4464C70.7388 13.4847 70.4243 13.7078 70.1941 14.1387C69.9648 14.5683 69.8461 15.1648 69.9255 15.8218C70.005 16.4789 70.2624 17.0298 70.5876 17.3924C70.9139 17.7562 71.2725 17.8987 71.5885 17.8605C71.9046 17.8223 72.2197 17.5985 72.45 17.1672C72.6793 16.7376 72.7971 16.1412 72.7177 15.4842C72.6382 14.8272 72.3817 14.276 72.0566 13.9135C71.7302 13.5496 71.3708 13.4082 71.0548 13.4464Z" fill="#F61500"/>
<path d="M71.0548 13.4464C70.7388 13.4847 70.4243 13.7078 70.1941 14.1387C69.9648 14.5683 69.8461 15.1648 69.9255 15.8218C70.005 16.4789 70.2624 17.0298 70.5876 17.3924C70.9139 17.7562 71.2725 17.8987 71.5885 17.8605C71.9046 17.8223 72.2197 17.5985 72.45 17.1672C72.6793 16.7376 72.7971 16.1412 72.7177 15.4842C72.6382 14.8272 72.3817 14.276 72.0566 13.9135C71.7302 13.5496 71.3708 13.4082 71.0548 13.4464Z" stroke="#F61500"/>
<path d="M73.8492 76.5395C75.4903 120.297 38.8116 127.812 8.70736 163.374M55.4021 76.2675C57.0431 120.025 26.8751 122.762 -4.31044 163.288M35.9728 75.981C39.5296 118.879 9.46223 122.47 -19.2622 163.883" stroke="#252525" stroke-width="5" stroke-linecap="round"/>
</g>
<defs>
<clipPath id="clip0_56_2">
<rect width="100" height="100" fill="white"/>
</clipPath>
</defs>
</svg>
